<mxfile host="app.diagrams.net" modified="2023-10-03T23:30:03.863Z" agent="Mozilla/5.0 (Windows NT 10.0; Win64; x64) AppleWebKit/537.36 (KHTML, like Gecko) Chrome/117.0.0.0 Safari/537.36 Edg/117.0.2045.47" version="21.8.2" etag="nl5LQ-tlmwnRs7gcFlkP" type="github">
  <diagram name="PÃ¡gina-1" id="gnqperHaOmLbbS6oyKBh">
    <mxGraphModel>
      <root>
        <mxCell id="0" />
        <mxCell id="1" parent="0" />
      </root>
    </mxGraphModel>
  </diagram>
</mxfile>
